<?xml version="1.0" encoding="UTF-8"?>
<!DOCTYPE svg PUBLIC "-//W3C//DTD SVG 1.1//EN" "http://www.w3.org/Graphics/SVG/1.1/DTD/svg11.dtd">
<!-- Creator: CorelDRAW 2020 (64 Bit) -->
<svg xmlns="http://www.w3.org/2000/svg" xml:space="preserve" width="217px" height="29px" version="1.1" style="shape-rendering:geometricPrecision; text-rendering:geometricPrecision; image-rendering:optimizeQuality; fill-rule:evenodd; clip-rule:evenodd"
viewBox="0 0 91.048 12.178"
 xmlns:xlink="http://www.w3.org/1999/xlink"
 xmlns:xodm="http://www.corel.com/coreldraw/odm/2003">
 <defs>
  <style type="text/css">
   <![CDATA[
    .fil0 {fill:#E5E5E5;fill-rule:nonzero}
   ]]>
  </style>
 </defs>
 <g id="Camada_x0020_1">
  <metadata id="CorelCorpID_0Corel-Layer"/>
  <g id="_2268996683008">
   <path class="fil0" d="M0.57 0.113c0.475,0.441 0.903,0.905 1.318,1.357 1.196,1.297 2.295,2.49 4.052,2.49 1.081,0 1.789,-0.909 2.496,-1.818 0.836,-1.071 1.67,-2.142 3.159,-2.142 1.489,0 2.322,1.071 3.156,2.142 0.708,0.909 1.416,1.818 2.499,1.818 1.081,0 1.789,-0.909 2.496,-1.818 0.836,-1.071 1.67,-2.142 3.158,-2.142 1.491,0 2.325,1.071 3.159,2.142 0.706,0.909 1.414,1.818 2.496,1.818 1.082,0 1.789,-0.909 2.497,-1.818 0.835,-1.071 1.669,-2.142 3.158,-2.142 1.489,0 2.323,1.071 3.157,2.142 0.709,0.909 1.417,1.818 2.498,1.818 1.081,0 1.789,-0.909 2.497,-1.818 0.835,-1.071 1.669,-2.142 3.158,-2.142 1.489,0 2.323,1.071 3.157,2.142 0.707,0.909 1.415,1.818 2.498,1.818 1.081,0 1.789,-0.909 2.496,-1.818 0.836,-1.071 1.67,-2.142 3.159,-2.142 1.489,0 2.323,1.071 3.156,2.142 0.708,0.909 1.416,1.818 2.499,1.818 1.081,0 1.789,-0.909 2.496,-1.818 0.836,-1.071 1.67,-2.142 3.159,-2.142 1.488,0 2.322,1.071 3.156,2.142 0.709,0.909 1.417,1.818 2.498,1.818 1.083,0 1.791,-0.909 2.498,-1.817 0.833,-1.072 1.667,-2.143 3.157,-2.143 1.489,0 2.323,1.071 3.157,2.142 0.708,0.909 1.415,1.818 2.498,1.818 1.758,0 2.856,-1.193 4.052,-2.49 0.415,-0.452 0.843,-0.916 1.318,-1.357l0.57 0.612c-0.451,0.419 -0.867,0.871 -1.273,1.311 -1.326,1.439 -2.544,2.762 -4.667,2.762 -1.489,0 -2.323,-1.071 -3.157,-2.142 -0.707,-0.909 -1.415,-1.818 -2.498,-1.818 -1.081,0 -1.789,0.909 -2.496,1.818 -0.836,1.071 -1.67,2.142 -3.159,2.142 -1.49,0 -2.324,-1.071 -3.158,-2.142 -0.706,-0.909 -1.414,-1.818 -2.496,-1.818 -1.083,0 -1.791,0.909 -2.498,1.817 -0.833,1.072 -1.667,2.143 -3.157,2.143 -1.489,0 -2.323,-1.071 -3.157,-2.142 -0.708,-0.909 -1.415,-1.818 -2.498,-1.818 -1.083,0 -1.79,0.909 -2.498,1.817 -0.833,1.072 -1.667,2.143 -3.157,2.143 -1.489,0 -2.323,-1.071 -3.157,-2.142 -0.707,-0.909 -1.415,-1.818 -2.498,-1.818 -1.082,0 -1.79,0.909 -2.498,1.817 -0.832,1.072 -1.666,2.143 -3.157,2.143 -1.49,0 -2.324,-1.071 -3.158,-2.142 -0.707,-0.909 -1.414,-1.818 -2.497,-1.818 -1.082,0 -1.79,0.909 -2.497,1.817 -0.833,1.072 -1.667,2.143 -3.158,2.143 -1.488,0 -2.323,-1.071 -3.156,-2.142 -0.709,-0.909 -1.417,-1.818 -2.499,-1.818 -1.082,0 -1.79,0.909 -2.497,1.817 -0.833,1.072 -1.667,2.143 -3.157,2.143 -1.489,0 -2.323,-1.071 -3.157,-2.142 -0.708,-0.909 -1.416,-1.818 -2.498,-1.818 -1.083,0 -1.791,0.909 -2.498,1.817 -0.833,1.072 -1.667,2.143 -3.157,2.143 -2.123,0 -3.341,-1.323 -4.667,-2.762 -0.406,-0.44 -0.822,-0.892 -1.273,-1.311l0.57 -0.612z"/>
   <path class="fil0" d="M0.57 7.493c0.475,0.442 0.903,0.905 1.318,1.357 1.196,1.298 2.295,2.49 4.052,2.49 1.081,0 1.789,-0.909 2.496,-1.818 0.836,-1.07 1.67,-2.142 3.159,-2.142 1.489,0 2.322,1.072 3.156,2.142 0.708,0.909 1.416,1.818 2.499,1.818 1.081,0 1.789,-0.909 2.496,-1.818 0.836,-1.07 1.67,-2.142 3.158,-2.142 1.491,0 2.325,1.072 3.159,2.142 0.706,0.91 1.414,1.818 2.496,1.818 1.082,0 1.789,-0.909 2.497,-1.818 0.835,-1.07 1.669,-2.142 3.158,-2.142 1.489,0 2.323,1.072 3.157,2.142 0.709,0.909 1.417,1.818 2.498,1.818 1.081,0 1.789,-0.909 2.497,-1.818 0.835,-1.07 1.669,-2.142 3.158,-2.142 1.489,0 2.323,1.072 3.157,2.142 0.707,0.909 1.415,1.818 2.498,1.818 1.081,0 1.789,-0.909 2.496,-1.818 0.836,-1.07 1.67,-2.142 3.159,-2.142 1.489,0 2.323,1.072 3.156,2.142 0.708,0.909 1.416,1.818 2.499,1.818 1.081,0 1.789,-0.909 2.496,-1.818 0.836,-1.07 1.67,-2.142 3.159,-2.142 1.488,0 2.322,1.072 3.156,2.142 0.709,0.909 1.417,1.818 2.498,1.818 1.083,0 1.791,-0.908 2.498,-1.817 0.833,-1.071 1.667,-2.143 3.157,-2.143 1.489,0 2.323,1.072 3.157,2.142 0.708,0.909 1.415,1.818 2.498,1.818 1.758,0 2.856,-1.192 4.052,-2.49 0.415,-0.452 0.843,-0.915 1.318,-1.357l0.57 0.613c-0.451,0.418 -0.867,0.87 -1.273,1.311 -1.326,1.439 -2.544,2.761 -4.667,2.761 -1.489,0 -2.323,-1.07 -3.157,-2.141 -0.707,-0.909 -1.415,-1.818 -2.498,-1.818 -1.081,0 -1.789,0.909 -2.496,1.818 -0.836,1.07 -1.67,2.141 -3.159,2.141 -1.49,0 -2.324,-1.071 -3.158,-2.141 -0.706,-0.91 -1.414,-1.818 -2.496,-1.818 -1.083,0 -1.791,0.908 -2.498,1.817 -0.833,1.071 -1.667,2.142 -3.157,2.142 -1.489,0 -2.323,-1.07 -3.157,-2.141 -0.708,-0.909 -1.415,-1.818 -2.498,-1.818 -1.083,0 -1.79,0.908 -2.498,1.817 -0.833,1.071 -1.667,2.142 -3.157,2.142 -1.489,0 -2.323,-1.07 -3.157,-2.141 -0.707,-0.909 -1.415,-1.818 -2.498,-1.818 -1.082,0 -1.79,0.908 -2.498,1.817 -0.832,1.071 -1.666,2.142 -3.157,2.142 -1.49,0 -2.324,-1.071 -3.158,-2.141 -0.707,-0.91 -1.414,-1.818 -2.497,-1.818 -1.082,0 -1.79,0.908 -2.497,1.817 -0.833,1.071 -1.667,2.142 -3.158,2.142 -1.488,0 -2.323,-1.071 -3.156,-2.141 -0.709,-0.909 -1.417,-1.818 -2.499,-1.818 -1.082,0 -1.79,0.908 -2.497,1.817 -0.833,1.071 -1.667,2.142 -3.157,2.142 -1.489,0 -2.323,-1.07 -3.157,-2.141 -0.708,-0.909 -1.416,-1.818 -2.498,-1.818 -1.083,0 -1.791,0.908 -2.498,1.817 -0.833,1.071 -1.667,2.142 -3.157,2.142 -2.123,0 -3.341,-1.322 -4.667,-2.761 -0.406,-0.441 -0.822,-0.893 -1.273,-1.311l0.57 -0.613z"/>
  </g>
 </g>
</svg>
