<?xml version="1.0" encoding="UTF-8"?>
<!DOCTYPE svg PUBLIC "-//W3C//DTD SVG 1.1//EN" "http://www.w3.org/Graphics/SVG/1.1/DTD/svg11.dtd">
<!-- Creator: CorelDRAW 2020 (64 Bit) -->
<svg xmlns="http://www.w3.org/2000/svg" xml:space="preserve" width="220px" height="220px" version="1.1" style="shape-rendering:geometricPrecision; text-rendering:geometricPrecision; image-rendering:optimizeQuality; fill-rule:evenodd; clip-rule:evenodd"
viewBox="0 0 33.162 33.162"
 xmlns:xlink="http://www.w3.org/1999/xlink"
 xmlns:xodm="http://www.corel.com/coreldraw/odm/2003">
 <defs>
  <style type="text/css">
   <![CDATA[
    .fil0 {fill:#E98A15}
    .fil1 {fill:white}
   ]]>
  </style>
 </defs>
 <g id="Camada_x0020_1">
  <metadata id="CorelCorpID_0Corel-Layer"/>
  <circle class="fil0" cx="16.581" cy="16.581" r="16.581"/>
  <path class="fil1" d="M9.474 8.75c0,0.695 0.162,0.996 0.286,1.528 -1.759,1.178 -1.894,5.811 0.261,7.952 0.537,0.534 1.07,0.833 1.824,1.137 0.494,0.199 1.725,0.542 2.403,0.557 -0.498,0.744 -0.524,0.69 -0.764,1.719 -1.195,0.278 -2.465,0.719 -3.573,-0.916 -0.733,-1.081 -1.178,-1.472 -2.443,-1.472 -0.974,0 0.581,1.039 0.683,1.132 1.332,1.209 0.732,3.357 4.283,3.357 0.53,0 0.566,-0.096 1.05,-0.096 0,0.786 0.136,2.163 -0.178,2.495l-0.395 0.275 7.64 0c-0.244,-0.213 -0.283,-0.089 -0.481,-0.283 -0.395,-0.387 -0.066,-3.265 -0.186,-4.398 -0.115,-1.09 -0.306,-1.127 -0.765,-1.813 6.297,-0.524 6.6,-6.375 5.154,-8.879 -0.148,-0.256 -0.514,-0.637 -0.547,-0.878 -0.037,-0.268 0.565,-2.116 -0.31,-3.422 -1.046,0 -2.22,0.58 -2.906,1.009 -1.116,0.699 -1.038,-0.054 -3.301,-0.054 -1.143,0 -1.541,-0.017 -2.689,0.175 -0.805,0.135 -0.867,0.362 -1.533,-0.06 -0.713,-0.451 -1.922,-1.07 -3.036,-1.07 -0.267,0.504 -0.477,1.233 -0.477,2.005z"/>
 </g>
</svg>
