<?xml version="1.0" encoding="UTF-8"?>
<!DOCTYPE svg PUBLIC "-//W3C//DTD SVG 1.1//EN" "http://www.w3.org/Graphics/SVG/1.1/DTD/svg11.dtd">
<!-- Creator: CorelDRAW 2020 (64 Bit) -->
<svg xmlns="http://www.w3.org/2000/svg" xml:space="preserve" width="220px" height="220px" version="1.1" style="shape-rendering:geometricPrecision; text-rendering:geometricPrecision; image-rendering:optimizeQuality; fill-rule:evenodd; clip-rule:evenodd"
viewBox="0 0 27.327 27.327"
 xmlns:xlink="http://www.w3.org/1999/xlink"
 xmlns:xodm="http://www.corel.com/coreldraw/odm/2003">
 <defs>
  <style type="text/css">
   <![CDATA[
    .fil0 {fill:#E98A15}
    .fil1 {fill:white}
   ]]>
  </style>
 </defs>
 <g id="Camada_x0020_1">
  <metadata id="CorelCorpID_0Corel-Layer"/>
  <circle class="fil0" cx="13.663" cy="13.663" r="13.663"/>
  <g id="_2470781395088">
   <path class="fil1" d="M6.546 18.162l0 -8.997c0,-1.303 1.316,-2.619 2.619,-2.619l8.997 0c1.303,0 2.619,1.316 2.619,2.619l0 8.997c0,1.303 -1.316,2.619 -2.619,2.619l-8.997 0c-1.303,0 -2.619,-1.316 -2.619,-2.619zm-1.477 -9.065l0 9.133c0,1.036 0.589,2.1 1.258,2.77 0.357,0.356 0.681,0.619 1.176,0.838 0.481,0.212 0.929,0.42 1.594,0.42l9.133 0c1.438,0 3.027,-1.12 3.608,-2.434 0.212,-0.481 0.42,-0.929 0.42,-1.594l0 -9.133c0,-1.438 -1.12,-3.027 -2.434,-3.608 -0.481,-0.212 -0.929,-0.42 -1.594,-0.42l-9.133 0c-2.008,0 -4.028,2.02 -4.028,4.028z"/>
   <path class="fil1" d="M10.843 13.865l0 -0.403c0,-1.303 1.316,-2.619 2.619,-2.619l0.403 0c1.303,0 2.619,1.316 2.619,2.619l0 0.403c0,1.303 -1.316,2.619 -2.619,2.619l-0.403 0c-1.303,0 -2.619,-1.316 -2.619,-2.619zm-1.477 -0.47l0 0.537c0,2.028 2.001,4.029 4.029,4.029l0.537 0c2.028,0 4.029,-2.001 4.029,-4.029l0 -0.537c0,-2.028 -2.001,-4.029 -4.029,-4.029l-0.537 0c-2.028,0 -4.029,2.001 -4.029,4.029z"/>
   <path class="fil1" d="M17.222 8.963c0,0.622 0.473,1.142 1.075,1.142 0.955,0 1.474,-1.121 0.826,-1.833 -0.668,-0.734 -1.901,-0.2 -1.901,0.691z"/>
  </g>
 </g>
</svg>
