<?xml version="1.0" encoding="UTF-8"?>
<!DOCTYPE svg PUBLIC "-//W3C//DTD SVG 1.1//EN" "http://www.w3.org/Graphics/SVG/1.1/DTD/svg11.dtd">
<!-- Creator: CorelDRAW 2020 (64 Bit) -->
<svg xmlns="http://www.w3.org/2000/svg" xml:space="preserve" width="220px" height="220px" version="1.1" style="shape-rendering:geometricPrecision; text-rendering:geometricPrecision; image-rendering:optimizeQuality; fill-rule:evenodd; clip-rule:evenodd"
viewBox="0 0 39.217 39.217"
 xmlns:xlink="http://www.w3.org/1999/xlink"
 xmlns:xodm="http://www.corel.com/coreldraw/odm/2003">
 <defs>
  <style type="text/css">
   <![CDATA[
    .fil0 {fill:#E98A15}
    .fil1 {fill:white}
   ]]>
  </style>
 </defs>
 <g id="Camada_x0020_1">
  <metadata id="CorelCorpID_0Corel-Layer"/>
  <circle class="fil0" cx="19.608" cy="19.608" r="19.608"/>
  <g id="_2470783896784">
   <path class="fil1" d="M20.851 16.373l0 -2.033 -4.631 0 0 15.585 4.857 0 0 -8.357c0,-2.351 1.02,-3.275 3.049,-3.275 2.166,0 2.258,2.441 2.258,4.63l0 6.889 4.857 0 0 -7.792c0,-4.358 -0.677,-8.019 -5.76,-8.019 -3.198,0 -3.955,1.877 -4.63,2.372z"/>
   <path class="fil1" d="M8.428 29.925l4.517 0c0.26,0 0.339,-0.079 0.339,-0.339l0 -14.907c0,-0.26 -0.079,-0.339 -0.339,-0.339l-4.517 0 0 15.585z"/>
   <path class="fil1" d="M7.976 9.371c0,3.874 5.647,3.962 5.647,0 0,-2.138 -2.875,-3.718 -4.719,-1.896 -0.294,0.29 -0.416,0.378 -0.593,0.762 -0.065,0.14 -0.335,0.964 -0.335,1.134z"/>
  </g>
 </g>
</svg>
